<svg viewBox="0 0 512 512" xmlns="http://www.w3.org/2000/svg"><text x="729.64" y="231.36"><tspan x="729.64" y="231.36"/></text><text transform="scale(4.0128 .2492)" x="378.91" y="579.26"/><text x="1310.91" y="151.36"><tspan x="1310.91" y="151.36"/></text><text transform="scale(4.0128 .2492)" x="523.76" y="258.22"/><text x="239.33" y="-29.9"><tspan x="239.33" y="-29.9"/></text><text transform="scale(4.0128 .2492)" x="256.72" y="-469.13"/><text x="1337.38" y="-246.37"><tspan x="1337.38" y="-246.37"/></text><text transform="scale(4.0128 .2492)" x="530.36" y="-1337.8"/><text x="1918.65" y="-326.37"><tspan x="1918.65" y="-326.37"/></text><text transform="scale(4.0128 .2492)" x="675.21" y="-1658.83"/><text x="1529.53" y="-798.77"><tspan x="1529.53" y="-798.77"/></text><text transform="scale(4.0128 .2492)" x="578.24" y="-3554.48"/><text x="2110.79" y="-878.78"><tspan x="2110.79" y="-878.78"/></text><text transform="scale(4.0128 .2492)" x="723.09" y="-3875.52"/><text x="277.99" y="535.94"><tspan x="277.99" y="535.94"/></text><text x="729.64" y="231.36"><tspan x="729.64" y="231.36"/></text><text transform="scale(4.0128 .2492)" x="378.91" y="579.26"/><text x="1310.91" y="151.36"><tspan x="1310.91" y="151.36"/></text><text transform="scale(4.0128 .2492)" x="523.76" y="258.22"/><text x="239.33" y="-29.9"><tspan x="239.33" y="-29.9"/></text><text transform="scale(4.0128 .2492)" x="256.72" y="-469.13"/><text x="1337.38" y="-246.37"><tspan x="1337.38" y="-246.37"/></text><text transform="scale(4.0128 .2492)" x="530.36" y="-1337.8"/><text x="1918.65" y="-326.37"><tspan x="1918.65" y="-326.37"/></text><text transform="scale(4.0128 .2492)" x="675.21" y="-1658.83"/><text x="1529.53" y="-798.77"><tspan x="1529.53" y="-798.77"/></text><text transform="scale(4.0128 .2492)" x="578.24" y="-3554.48"/><text x="2110.79" y="-878.78"><tspan x="2110.79" y="-878.78"/></text><text transform="scale(4.0128 .2492)" x="723.09" y="-3875.52"/><text x="277.99" y="535.94"><tspan x="277.99" y="535.94"/></text><text x="729.64" y="231.36"><tspan x="729.64" y="231.36"/></text><text transform="scale(4.0128 .2492)" x="378.91" y="579.26"/><text x="1310.91" y="151.36"><tspan x="1310.91" y="151.36"/></text><text transform="scale(4.0128 .2492)" x="523.76" y="258.22"/><text x="239.33" y="-29.9"><tspan x="239.33" y="-29.9"/></text><text transform="scale(4.0128 .2492)" x="256.72" y="-469.13"/><text x="1337.38" y="-246.37"><tspan x="1337.38" y="-246.37"/></text><text transform="scale(4.0128 .2492)" x="530.36" y="-1337.8"/><text x="1918.65" y="-326.37"><tspan x="1918.65" y="-326.37"/></text><text transform="scale(4.0128 .2492)" x="675.21" y="-1658.83"/><text x="1529.53" y="-798.77"><tspan x="1529.53" y="-798.77"/></text><text transform="scale(4.0128 .2492)" x="578.24" y="-3554.48"/><text x="2110.79" y="-878.78"><tspan x="2110.79" y="-878.78"/></text><text transform="scale(4.0128 .2492)" x="723.09" y="-3875.52"/><text x="277.99" y="535.94"><tspan x="277.99" y="535.94"/></text><text x="729.64" y="231.36"><tspan x="729.64" y="231.36"/></text><text transform="scale(4.0128 .2492)" x="378.91" y="579.25"/><text x="1310.91" y="151.36"><tspan x="1310.91" y="151.36"/></text><text transform="scale(4.0128 .2492)" x="523.76" y="258.22"/><text x="239.33" y="-29.901"><tspan x="239.33" y="-29.901"/></text><text transform="scale(4.0128 .2492)" x="256.72" y="-469.14"/><text x="1337.38" y="-246.37"><tspan x="1337.38" y="-246.37"/></text><text transform="scale(4.0128 .2492)" x="530.36" y="-1337.81"/><text x="1918.65" y="-326.38"><tspan x="1918.65" y="-326.38"/></text><text transform="scale(4.0128 .2492)" x="675.21" y="-1658.85"/><text x="1529.53" y="-798.78"><tspan x="1529.53" y="-798.78"/></text><text transform="scale(4.0128 .2492)" x="578.24" y="-3554.51"/><text x="2110.79" y="-878.78"><tspan x="2110.79" y="-878.78"/></text><text transform="scale(4.0128 .2492)" x="723.09" y="-3875.54"/><text x="277.99" y="535.94"><tspan x="277.99" y="535.94"/></text><text x="729.64" y="231.36"><tspan x="729.64" y="231.36"/></text><text transform="scale(4.0128 .2492)" x="378.91" y="579.25"/><text x="1310.91" y="151.36"><tspan x="1310.91" y="151.36"/></text><text transform="scale(4.0128 .2492)" x="523.76" y="258.22"/><text x="239.33" y="-29.901"><tspan x="239.33" y="-29.901"/></text><text transform="scale(4.0128 .2492)" x="256.72" y="-469.14"/><text x="1337.38" y="-246.37"><tspan x="1337.38" y="-246.37"/></text><text transform="scale(4.0128 .2492)" x="530.36" y="-1337.8"/><text x="1918.65" y="-326.38"><tspan x="1918.65" y="-326.38"/></text><text transform="scale(4.0128 .2492)" x="675.21" y="-1658.84"/><text x="1529.53" y="-798.78"><tspan x="1529.53" y="-798.78"/></text><text transform="scale(4.0128 .2492)" x="578.24" y="-3554.49"/><text x="2110.79" y="-878.78"><tspan x="2110.79" y="-878.78"/></text><text transform="scale(4.0128 .2492)" x="723.09" y="-3875.52"/><text x="277.99" y="535.94"><tspan x="277.99" y="535.94"/></text><text x="-307.18" y="-11.341"><tspan x="-307.18" y="-11.341"/></text><text transform="scale(4.0128 .2492)" x="228.47" y="-585.88"/><text x="438.2" y="41.802"><tspan x="438.2" y="41.802"/></text><text transform="scale(4.0128 .2492)" x="414.22" y="-372.63"/><text x="1337.81" y="-82.02"><tspan x="1337.81" y="-82.02"/></text><text transform="scale(4.0128 .2492)" x="638.4" y="-869.49"/><text x="465.66" y="-134.65"><tspan x="465.66" y="-134.65"/></text><text transform="scale(4.0128 .2492)" x="421.06" y="-1080.7"/><text x="1365.27" y="-258.47"><tspan x="1365.27" y="-258.47"/></text><text transform="scale(4.0128 .2492)" x="645.24" y="-1577.56"/><text x="-2544.32" y="317.23"><tspan x="-2544.32" y="317.23"/></text><text transform="scale(4.0128 .2492)" x="-329.03" y="732.62"/><text x="-616.04" y="81.8"><tspan x="-616.04" y="81.8"/></text><text transform="scale(4.0128 .2492)" x="151.5" y="-212.12"/><text x="129.34" y="134.94"><tspan x="129.34" y="134.94"/></text><text transform="scale(4.0128 .2492)" x="337.25" y="1.138"/><text x="1028.95" y="11.127"><tspan x="1028.95" y="11.127"/></text><text transform="scale(4.0128 .2492)" x="561.43" y="-495.72"/><text x="156.8" y="-41.51"><tspan x="156.8" y="-41.51"/></text><text transform="scale(4.0128 .2492)" x="344.09" y="-706.95"/><text x="1056.42" y="-165.33"><tspan x="1056.42" y="-165.33"/></text><text transform="scale(4.0128 .2492)" x="568.28" y="-1203.8"/><text x="-2853.18" y="410.37"><tspan x="-2853.18" y="410.37"/></text><text transform="scale(4.0128 .2492)" x="-406" y="1106.38"/><text x="-1330.61" y="-35.06"><tspan x="-1330.61" y="-35.06"/></text><text transform="scale(4.0128 .2492)" x="-26.571" y="-681.04"/><text x="-585.23" y="18.09"><tspan x="-585.23" y="18.09"/></text><text transform="scale(4.0128 .2492)" x="159.18" y="-467.79"/><text x="314.38" y="-105.73"><tspan x="314.38" y="-105.73"/></text><text transform="scale(4.0128 .2492)" x="383.36" y="-964.65"/><text x="-557.77" y="-158.37"><tspan x="-557.77" y="-158.37"/></text><text transform="scale(4.0128 .2492)" x="166.02" y="-1175.87"/><text x="341.85" y="-282.18"><tspan x="341.85" y="-282.18"/></text><text transform="scale(4.0128 .2492)" x="390.2" y="-1672.72"/><text x="-3567.75" y="293.52"><tspan x="-3567.75" y="293.52"/></text><text transform="scale(4.0128 .2492)" x="-584.07" y="637.46"/><text x="729.64" y="231.36"><tspan x="729.64" y="231.36"/></text><text transform="scale(4.0128 .2492)" x="378.91" y="579.25"/><text x="1310.91" y="151.36"><tspan x="1310.91" y="151.36"/></text><text transform="scale(4.0128 .2492)" x="523.76" y="258.22"/><text x="239.33" y="-29.901"><tspan x="239.33" y="-29.901"/></text><text transform="scale(4.0128 .2492)" x="256.72" y="-469.14"/><text x="1337.38" y="-246.37"><tspan x="1337.38" y="-246.37"/></text><text transform="scale(4.0128 .2492)" x="530.36" y="-1337.79"/><text x="1918.65" y="-326.38"><tspan x="1918.65" y="-326.38"/></text><text transform="scale(4.0128 .2492)" x="675.21" y="-1658.83"/><text x="1529.53" y="-798.78"><tspan x="1529.53" y="-798.78"/></text><text transform="scale(4.0128 .2492)" x="578.24" y="-3554.47"/><text x="2110.79" y="-878.78"><tspan x="2110.79" y="-878.78"/></text><text transform="scale(4.0128 .2492)" x="723.09" y="-3875.5"/><text x="277.99" y="535.94"><tspan x="277.99" y="535.94"/></text><text x="104.96" y="227.12"><tspan x="104.96" y="227.12"/></text><text transform="scale(4.0128 .2492)" x="223.24" y="562.23"/><text x="686.23" y="147.11"><tspan x="686.23" y="147.11"/></text><text transform="scale(4.0128 .2492)" x="368.09" y="241.19"/><text x="-385.35" y="-34.14"><tspan x="-385.35" y="-34.14"/></text><text transform="scale(4.0128 .2492)" x="101.05" y="-486.16"/><text x="712.7" y="-250.62"><tspan x="712.7" y="-250.62"/></text><text transform="scale(4.0128 .2492)" x="374.69" y="-1354.83"/><text x="1293.97" y="-330.62"><tspan x="1293.97" y="-330.62"/></text><text transform="scale(4.0128 .2492)" x="519.54" y="-1675.86"/><text x="904.85" y="-803.02"><tspan x="904.85" y="-803.02"/></text><text transform="scale(4.0128 .2492)" x="422.57" y="-3571.51"/><text x="1486.12" y="-883.02"><tspan x="1486.12" y="-883.02"/></text><text transform="scale(4.0128 .2492)" x="567.42" y="-3892.55"/><text x="-346.69" y="531.69"><tspan x="-346.69" y="531.69"/></text><text x="-931.86" y="-15.584"><tspan x="-931.86" y="-15.584"/></text><text transform="scale(4.0128 .2492)" x="72.797" y="-602.91"/><text x="-186.48" y="37.559"><tspan x="-186.48" y="37.559"/></text><text transform="scale(4.0128 .2492)" x="258.55" y="-389.66"/><text x="713.13" y="-86.26"><tspan x="713.13" y="-86.26"/></text><text transform="scale(4.0128 .2492)" x="482.73" y="-886.51"/><text x="-159.02" y="-138.9"><tspan x="-159.02" y="-138.9"/></text><text transform="scale(4.0128 .2492)" x="265.39" y="-1097.73"/><text x="740.6" y="-262.71"><tspan x="740.6" y="-262.71"/></text><text transform="scale(4.0128 .2492)" x="489.57" y="-1594.59"/><text x="-3169" y="312.99"><tspan x="-3169" y="312.99"/></text><text transform="scale(4.0128 .2492)" x="-484.7" y="715.59"/><text x="-1240.72" y="77.56"><tspan x="-1240.72" y="77.56"/></text><text transform="scale(4.0128 .2492)" x="-4.17" y="-229.14"/><text x="-495.34" y="130.7"><tspan x="-495.34" y="130.7"/></text><text transform="scale(4.0128 .2492)" x="181.58" y="-15.889"/><text x="404.27" y="6.884"><tspan x="404.27" y="6.884"/></text><text transform="scale(4.0128 .2492)" x="405.76" y="-512.75"/><text x="-467.88" y="-45.754"><tspan x="-467.88" y="-45.754"/></text><text transform="scale(4.0128 .2492)" x="188.42" y="-723.97"/><text x="431.74" y="-169.57"><tspan x="431.74" y="-169.57"/></text><text transform="scale(4.0128 .2492)" x="412.61" y="-1220.82"/><text x="-3477.86" y="406.13"><tspan x="-3477.86" y="406.13"/></text><text transform="scale(4.0128 .2492)" x="-561.67" y="1089.35"/><text x="-1955.29" y="-39.3"><tspan x="-1955.29" y="-39.3"/></text><text transform="scale(4.0128 .2492)" x="-182.24" y="-698.07"/><text x="-1209.91" y="13.844"><tspan x="-1209.91" y="13.844"/></text><text transform="scale(4.0128 .2492)" x="3.507" y="-484.82"/><text x="-310.3" y="-109.97"><tspan x="-310.3" y="-109.97"/></text><text transform="scale(4.0128 .2492)" x="227.69" y="-981.67"/><text x="-1182.45" y="-162.61"><tspan x="-1182.45" y="-162.61"/></text><text transform="scale(4.0128 .2492)" x="10.351" y="-1192.89"/><text x="-282.83" y="-286.43"><tspan x="-282.83" y="-286.43"/></text><text transform="scale(4.0128 .2492)" x="234.54" y="-1689.75"/><text x="-4192.43" y="289.27"><tspan x="-4192.43" y="289.27"/></text><text transform="scale(4.0128 .2492)" x="-739.74" y="620.43"/><text x="729.64" y="231.36"><tspan x="729.64" y="231.36"/></text><text transform="scale(4.0128 .2492)" x="378.91" y="579.25"/><text x="1310.91" y="151.36"><tspan x="1310.91" y="151.36"/></text><text transform="scale(4.0128 .2492)" x="523.76" y="258.22"/><text x="239.33" y="-29.901"><tspan x="239.33" y="-29.901"/></text><text transform="scale(4.0128 .2492)" x="256.72" y="-469.14"/><text x="1337.38" y="-246.37"><tspan x="1337.38" y="-246.37"/></text><text transform="scale(4.0128 .2492)" x="530.36" y="-1337.79"/><text x="1918.65" y="-326.38"><tspan x="1918.65" y="-326.38"/></text><text transform="scale(4.0128 .2492)" x="675.21" y="-1658.83"/><text x="1529.53" y="-798.78"><tspan x="1529.53" y="-798.78"/></text><text transform="scale(4.0128 .2492)" x="578.24" y="-3554.47"/><text x="2110.79" y="-878.78"><tspan x="2110.79" y="-878.78"/></text><text transform="scale(4.0128 .2492)" x="723.09" y="-3875.5"/><text x="277.99" y="535.94"><tspan x="277.99" y="535.94"/></text><text x="-307.18" y="-11.341"><tspan x="-307.18" y="-11.341"/></text><text transform="scale(4.0128 .2492)" x="228.47" y="-585.88"/><text x="438.2" y="41.802"><tspan x="438.2" y="41.802"/></text><text transform="scale(4.0128 .2492)" x="414.22" y="-372.63"/><text x="1337.81" y="-82.02"><tspan x="1337.81" y="-82.02"/></text><text transform="scale(4.0128 .2492)" x="638.4" y="-869.49"/><text x="465.66" y="-134.65"><tspan x="465.66" y="-134.65"/></text><text transform="scale(4.0128 .2492)" x="421.06" y="-1080.69"/><text x="1365.27" y="-258.47"><tspan x="1365.27" y="-258.47"/></text><text transform="scale(4.0128 .2492)" x="645.24" y="-1577.55"/><text x="-2544.32" y="317.23"><tspan x="-2544.32" y="317.23"/></text><text transform="scale(4.0128 .2492)" x="-329.03" y="732.62"/><text x="-616.04" y="81.8"><tspan x="-616.04" y="81.8"/></text><text transform="scale(4.0128 .2492)" x="151.5" y="-212.12"/><text x="129.34" y="134.94"><tspan x="129.34" y="134.94"/></text><text transform="scale(4.0128 .2492)" x="337.25" y="1.138"/><text x="1028.95" y="11.127"><tspan x="1028.95" y="11.127"/></text><text transform="scale(4.0128 .2492)" x="561.43" y="-495.72"/><text x="156.8" y="-41.51"><tspan x="156.8" y="-41.51"/></text><text transform="scale(4.0128 .2492)" x="344.09" y="-706.95"/><text x="1056.42" y="-165.33"><tspan x="1056.42" y="-165.33"/></text><text transform="scale(4.0128 .2492)" x="568.28" y="-1203.79"/><text x="-2853.18" y="410.37"><tspan x="-2853.18" y="410.37"/></text><text transform="scale(4.0128 .2492)" x="-406" y="1106.37"/><text x="-1330.61" y="-35.06"><tspan x="-1330.61" y="-35.06"/></text><text transform="scale(4.0128 .2492)" x="-26.571" y="-681.04"/><text x="-585.23" y="18.09"><tspan x="-585.23" y="18.09"/></text><text transform="scale(4.0128 .2492)" x="159.18" y="-467.79"/><text x="314.38" y="-105.73"><tspan x="314.38" y="-105.73"/></text><text transform="scale(4.0128 .2492)" x="383.36" y="-964.65"/><text x="-557.77" y="-158.37"><tspan x="-557.77" y="-158.37"/></text><text transform="scale(4.0128 .2492)" x="166.02" y="-1175.86"/><text x="341.85" y="-282.18"><tspan x="341.85" y="-282.18"/></text><text transform="scale(4.0128 .2492)" x="390.2" y="-1672.71"/><text x="-3567.75" y="293.52"><tspan x="-3567.75" y="293.52"/></text><text transform="scale(4.0128 .2492)" x="-584.07" y="637.46"/><text x="729.64" y="231.36"><tspan x="729.64" y="231.36"/></text><text transform="scale(4.0128 .2492)" x="378.91" y="579.25"/><text x="1310.91" y="151.36"><tspan x="1310.91" y="151.36"/></text><text transform="scale(4.0128 .2492)" x="523.76" y="258.22"/><text x="239.33" y="-29.901"><tspan x="239.33" y="-29.901"/></text><text transform="scale(4.0128 .2492)" x="256.72" y="-469.14"/><text x="1337.38" y="-246.37"><tspan x="1337.38" y="-246.37"/></text><text transform="scale(4.0128 .2492)" x="530.36" y="-1337.78"/><text x="1918.65" y="-326.38"><tspan x="1918.65" y="-326.38"/></text><text transform="scale(4.0128 .2492)" x="675.21" y="-1658.82"/><text x="1529.53" y="-798.78"><tspan x="1529.53" y="-798.78"/></text><text transform="scale(4.0128 .2492)" x="578.24" y="-3554.45"/><text x="2110.79" y="-878.78"><tspan x="2110.79" y="-878.78"/></text><text transform="scale(4.0128 .2492)" x="723.09" y="-3875.48"/><text x="277.99" y="535.94"><tspan x="277.99" y="535.94"/></text><text x="104.96" y="227.12"><tspan x="104.96" y="227.12"/></text><text transform="scale(4.0128 .2492)" x="223.24" y="562.23"/><text x="686.23" y="147.11"><tspan x="686.23" y="147.11"/></text><text transform="scale(4.0128 .2492)" x="368.09" y="241.19"/><text x="-385.35" y="-34.14"><tspan x="-385.35" y="-34.14"/></text><text transform="scale(4.0128 .2492)" x="101.05" y="-486.16"/><text x="712.7" y="-250.62"><tspan x="712.7" y="-250.62"/></text><text transform="scale(4.0128 .2492)" x="374.69" y="-1354.82"/><text x="1293.97" y="-330.62"><tspan x="1293.97" y="-330.62"/></text><text transform="scale(4.0128 .2492)" x="519.54" y="-1675.85"/><text x="904.85" y="-803.02"><tspan x="904.85" y="-803.02"/></text><text transform="scale(4.0128 .2492)" x="422.57" y="-3571.49"/><text x="1486.12" y="-883.02"><tspan x="1486.12" y="-883.02"/></text><text transform="scale(4.0128 .2492)" x="567.42" y="-3892.53"/><text x="-346.69" y="531.69"><tspan x="-346.69" y="531.69"/></text><text x="-931.86" y="-15.584"><tspan x="-931.86" y="-15.584"/></text><text transform="scale(4.0128 .2492)" x="72.797" y="-602.91"/><text x="-186.48" y="37.559"><tspan x="-186.48" y="37.559"/></text><text transform="scale(4.0128 .2492)" x="258.55" y="-389.66"/><text x="713.13" y="-86.26"><tspan x="713.13" y="-86.26"/></text><text transform="scale(4.0128 .2492)" x="482.73" y="-886.51"/><text x="-159.02" y="-138.9"><tspan x="-159.02" y="-138.9"/></text><text transform="scale(4.0128 .2492)" x="265.39" y="-1097.72"/><text x="740.6" y="-262.71"><tspan x="740.6" y="-262.71"/></text><text transform="scale(4.0128 .2492)" x="489.57" y="-1594.58"/><text x="-3169" y="312.99"><tspan x="-3169" y="312.99"/></text><text transform="scale(4.0128 .2492)" x="-484.7" y="715.59"/><text x="-1240.72" y="77.56"><tspan x="-1240.72" y="77.56"/></text><text transform="scale(4.0128 .2492)" x="-4.17" y="-229.14"/><text x="-495.34" y="130.7"><tspan x="-495.34" y="130.7"/></text><text transform="scale(4.0128 .2492)" x="181.58" y="-15.889"/><text x="404.27" y="6.884"><tspan x="404.27" y="6.884"/></text><text transform="scale(4.0128 .2492)" x="405.76" y="-512.75"/><text x="-467.88" y="-45.754"><tspan x="-467.88" y="-45.754"/></text><text transform="scale(4.0128 .2492)" x="188.42" y="-723.97"/><text x="431.74" y="-169.57"><tspan x="431.74" y="-169.57"/></text><text transform="scale(4.0128 .2492)" x="412.61" y="-1220.81"/><text x="-3477.86" y="406.13"><tspan x="-3477.86" y="406.13"/></text><text transform="scale(4.0128 .2492)" x="-561.67" y="1089.34"/><text x="-1955.29" y="-39.3"><tspan x="-1955.29" y="-39.3"/></text><text transform="scale(4.0128 .2492)" x="-182.24" y="-698.07"/><text x="-1209.91" y="13.844"><tspan x="-1209.91" y="13.844"/></text><text transform="scale(4.0128 .2492)" x="3.507" y="-484.82"/><text x="-310.3" y="-109.97"><tspan x="-310.3" y="-109.97"/></text><text transform="scale(4.0128 .2492)" x="227.69" y="-981.66"/><text x="-1182.45" y="-162.61"><tspan x="-1182.45" y="-162.61"/></text><text transform="scale(4.0128 .2492)" x="10.351" y="-1192.88"/><text x="-282.83" y="-286.43"><tspan x="-282.83" y="-286.43"/></text><text transform="scale(4.0128 .2492)" x="234.54" y="-1689.74"/><text x="-4192.43" y="289.27"><tspan x="-4192.43" y="289.27"/></text><text transform="scale(4.0128 .2492)" x="-739.74" y="620.43"/><text x="729.64" y="231.36"><tspan x="729.64" y="231.36"/></text><text transform="scale(4.0128 .2492)" x="378.91" y="579.26"/><text x="1310.91" y="151.36"><tspan x="1310.91" y="151.36"/></text><text transform="scale(4.0128 .2492)" x="523.76" y="258.22"/><text x="239.33" y="-29.9"><tspan x="239.33" y="-29.9"/></text><text transform="scale(4.0128 .2492)" x="256.72" y="-469.13"/><text x="1337.38" y="-246.37"><tspan x="1337.38" y="-246.37"/></text><text transform="scale(4.0128 .2492)" x="530.36" y="-1337.8"/><text x="1918.65" y="-326.37"><tspan x="1918.65" y="-326.37"/></text><text transform="scale(4.0128 .2492)" x="675.21" y="-1658.83"/><text x="1529.53" y="-798.77"><tspan x="1529.53" y="-798.77"/></text><text transform="scale(4.0128 .2492)" x="578.24" y="-3554.48"/><text x="2110.79" y="-878.78"><tspan x="2110.79" y="-878.78"/></text><text transform="scale(4.0128 .2492)" x="723.09" y="-3875.52"/><text x="277.99" y="535.94"><tspan x="277.99" y="535.94"/></text><text x="221.98" y="129.39"><tspan x="221.98" y="129.39"/></text><text transform="scale(4.0128 .2492)" x="252.4" y="170.08"/><text x="803.25" y="49.39"><tspan x="803.25" y="49.39"/></text><text transform="scale(4.0128 .2492)" x="397.25" y="-150.95"/><text x="-268.33" y="-131.87"><tspan x="-268.33" y="-131.87"/></text><text transform="scale(4.0128 .2492)" x="130.21" y="-878.31"/><text x="829.72" y="-348.34"><tspan x="829.72" y="-348.34"/></text><text transform="scale(4.0128 .2492)" x="403.85" y="-1746.97"/><text x="1410.99" y="-428.35"><tspan x="1410.99" y="-428.35"/></text><text transform="scale(4.0128 .2492)" x="548.7" y="-2068.01"/><text x="1021.87" y="-900.75"><tspan x="1021.87" y="-900.75"/></text><text transform="scale(4.0128 .2492)" x="451.73" y="-3963.66"/><text x="1603.13" y="-980.75"><tspan x="1603.13" y="-980.75"/></text><text transform="scale(4.0128 .2492)" x="596.58" y="-4284.69"/><text x="-229.67" y="433.97"><tspan x="-229.67" y="433.97"/></text><g fill-rule="evenodd"><path d="m471.95 253.05c0 120.9-98.01 218.91-218.91 218.91s-218.91-98.01-218.91-218.91 98.01-218.91 218.91-218.91 218.91 98.01 218.91 218.91" fill="#469cd5"/><path d="m256 1c-140.83 0-255 114.17-255 255s114.17 255 255 255 255-114.17 255-255-114.17-255-255-255m8.827 44.931c120.9 0 218.9 98 218.9 218.9s-98 218.9-218.9 218.9-218.93-98-218.93-218.9 98.03-218.9 218.93-218.9" fill-opacity=".067"/><g fill-opacity=".129"><path d="m256 4.43c-138.94 0-251.57 112.63-251.57 251.57s112.63 251.57 251.57 251.57 251.57-112.63 251.57-251.57-112.63-251.57-251.57-251.57m5.885 38.556c120.9 0 218.9 98 218.9 218.9s-98 218.9-218.9 218.9-218.93-98-218.93-218.9 98.03-218.9 218.93-218.9"/><path d="m256 8.36c-136.77 0-247.64 110.87-247.64 247.64s110.87 247.64 247.64 247.64 247.64-110.87 247.64-247.64-110.87-247.64-247.64-247.64m2.942 31.691c120.9 0 218.9 98 218.9 218.9s-98 218.9-218.9 218.9-218.93-98-218.93-218.9 98.03-218.9 218.93-218.9"/></g><path d="m253.04 7.86c-135.42 0-245.19 109.78-245.19 245.19 0 135.42 109.78 245.19 245.19 245.19 135.42 0 245.19-109.78 245.19-245.19 0-135.42-109.78-245.19-245.19-245.19m0 26.297c120.9 0 218.9 98 218.9 218.9s-98 218.9-218.9 218.9-218.93-98-218.93-218.9 98.03-218.9 218.93-218.9z" fill="#fff" stroke="#000" stroke-opacity=".31" stroke-width="4.904"/></g><text x="729.64" y="231.36"><tspan x="729.64" y="231.36"/></text><text transform="scale(4.0128 .2492)" x="378.91" y="579.26"/><text x="1310.91" y="151.36"><tspan x="1310.91" y="151.36"/></text><text transform="scale(4.0128 .2492)" x="523.76" y="258.22"/><text x="239.33" y="-29.9"><tspan x="239.33" y="-29.9"/></text><text transform="scale(4.0128 .2492)" x="256.72" y="-469.13"/><text x="1337.38" y="-246.37"><tspan x="1337.38" y="-246.37"/></text><text transform="scale(4.0128 .2492)" x="530.36" y="-1337.8"/><text x="1918.65" y="-326.37"><tspan x="1918.65" y="-326.37"/></text><text transform="scale(4.0128 .2492)" x="675.21" y="-1658.83"/><text x="1529.53" y="-798.77"><tspan x="1529.53" y="-798.77"/></text><text transform="scale(4.0128 .2492)" x="578.24" y="-3554.48"/><text x="2110.79" y="-878.78"><tspan x="2110.79" y="-878.78"/></text><text transform="scale(4.0128 .2492)" x="723.09" y="-3875.52"/><text x="277.99" y="535.94"><tspan x="277.99" y="535.94"/></text><path d="m151.37 126.79 32.855 32.855-52.44-30.29v198.66l142.88 142.88c110.74-10.867 197.27-104.25 197.27-217.84 0-11.813-.947-23.403-2.748-34.709l-88.99-88.99-7.584 4.377-6.938-6.938h-50.41c-13.601 4.466-43.774 24.684-58.07 43.23l-8.914-8.914c-15.866-15.866-35.984-30.01-46.45-34.31h-50.47" opacity=".25"/><path d="m151.37 126.79 81.3 51.54h51.721l81.3-51.54h-50.41c-13.697 4.498-44.21 24.973-58.38 43.624-16.353-19.355-42.571-38.496-55.05-43.624h-50.47m-19.58 2.559v198.66l87.25 50.41v-198.66zm248.41 0-87.31 50.41v198.66l87.31-50.41zm-147.18 57.25v198.6h46.48v-198.6z" fill="#fff"/></svg>